<?xml version="1.0" encoding="UTF-8" standalone="no"?>
<!-- Created with Inkscape (http://www.inkscape.org/) -->

<svg
   xmlns:dc="http://purl.org/dc/elements/1.1/"
   xmlns:cc="http://creativecommons.org/ns#"
   xmlns:rdf="http://www.w3.org/1999/02/22-rdf-syntax-ns#"
   xmlns:svg="http://www.w3.org/2000/svg"
   xmlns="http://www.w3.org/2000/svg"
   xmlns:sodipodi="http://sodipodi.sourceforge.net/DTD/sodipodi-0.dtd"
   xmlns:inkscape="http://www.inkscape.org/namespaces/inkscape"
   width="307.32486"
   height="59.961739"
   viewBox="0 0 81.313033 15.864876"
   version="1.1"
   id="svg8681"
   inkscape:version="0.92.0 r15299"
   sodipodi:docname="buckeye broadband.svg">
  <defs
     id="defs8675">
    <clipPath
       id="clipPath5523"
       clipPathUnits="userSpaceOnUse">
      <path
         inkscape:connector-curvature="0"
         id="path5521"
         d="M 0,0 H 612 V 792 H 0 Z" />
    </clipPath>
    <clipPath
       id="clipPath5499"
       clipPathUnits="userSpaceOnUse">
      <path
         inkscape:connector-curvature="0"
         id="path5497"
         d="M 0,0 H 612 V 792 H 0 Z" />
    </clipPath>
  </defs>
  <sodipodi:namedview
     id="base"
     pagecolor="#ffffff"
     bordercolor="#666666"
     borderopacity="1.0"
     inkscape:pageopacity="0.0"
     inkscape:pageshadow="2"
     inkscape:zoom="2.9378546"
     inkscape:cx="152.66242"
     inkscape:cy="28.980869"
     inkscape:document-units="mm"
     inkscape:current-layer="layer1"
     showgrid="false"
     fit-margin-top="0"
     fit-margin-left="0"
     fit-margin-right="0"
     fit-margin-bottom="0"
     units="px"
     inkscape:window-width="1280"
     inkscape:window-height="744"
     inkscape:window-x="-4"
     inkscape:window-y="-4"
     inkscape:window-maximized="1" />
  <metadata
     id="metadata8678">
    <rdf:RDF>
      <cc:Work
         rdf:about="">
        <dc:format>image/svg+xml</dc:format>
        <dc:type
           rdf:resource="http://purl.org/dc/dcmitype/StillImage" />
        <dc:title></dc:title>
      </cc:Work>
    </rdf:RDF>
  </metadata>
  <g
     inkscape:label="Layer 1"
     inkscape:groupmode="layer"
     id="layer1"
     transform="translate(-68.46521,-167.09465)">
    <g
       id="g8863"
       transform="translate(0.26458544,-0.26457779)">
      <path
         d="m 96.697908,181.00972 h 0.669572 c 0.578203,0 0.760942,0.23177 0.760942,0.61242 0,0.60043 -0.547864,0.60643 -0.791281,0.60643 h -0.639233 z m 0,-1.75366 h 0.707672 c 0.388056,0 0.662164,0.23178 0.662164,0.54681 0,0.41628 -0.350308,0.54716 -0.601133,0.54716 h -0.768703 z m 0.88265,3.6322 c 0.487186,0 1.696861,-0.0476 1.696861,-1.13559 0,-0.58843 -0.213078,-0.99871 -1.027289,-1.08761 v -0.012 c 0.624064,-0.0953 0.93592,-0.45191 0.93592,-0.94509 0,-0.91581 -0.722842,-1.11196 -1.597731,-1.11196 h -2.039408 v 4.29225 z m 5.326592,-3.6322 h 0.50976 c 0.36513,0 0.58597,0.15452 0.58597,0.5648 0,0.2734 -0.12947,0.63006 -0.58597,0.63006 h -0.50976 z m 0,1.85455 h 0.29669 c 0.88265,0 0.82162,0.43427 0.82162,0.94545 0,0.2794 -0.0303,0.57079 0.1217,0.8322 h 1.12642 c -0.10654,-0.1785 -0.12947,-0.98672 -0.12947,-1.26012 0,-0.77294 -0.74577,-0.82056 -0.99695,-0.8442 v -0.012 c 0.74578,-0.0952 1.01988,-0.50518 1.01988,-1.05234 0,-0.73095 -0.50235,-1.1236 -1.28587,-1.1236 h -2.12302 v 4.29225 h 1.149 z m 6.54403,1.20686 c -0.647,0 -0.73061,-0.47555 -0.73061,-1.57516 0,-1.09996 0.0836,-1.5755 0.73061,-1.5755 0.64664,0 0.73025,0.47554 0.73025,1.5755 0,1.09961 -0.0836,1.57516 -0.73025,1.57516 m 0,0.64205 c 1.89441,0 1.89441,-1.09361 1.89441,-2.21721 0,-1.13559 0,-2.21756 -1.89441,-2.21756 -1.89477,0 -1.89477,1.08197 -1.89477,2.21756 0,1.1236 0,2.21721 1.89477,2.21721 m 5.12092,-0.0713 0.31185,-0.95109 h 1.5674 l 0.30444,0.95109 h 1.21003 l -1.49154,-4.29225 h -1.51413 l -1.52188,4.29225 z m 1.63583,-1.61113 h -1.09573 l 0.52494,-1.85456 h 0.0155 z m 5.06765,-2.02107 h 0.59373 c 0.79904,0 0.79904,0.69533 0.79904,1.48625 0,1.07598 -0.13723,1.48626 -0.83714,1.48626 h -0.55563 z m -1.14899,3.6322 h 1.87219 c 1.96285,0 1.83374,-1.50989 1.83374,-2.16993 0,-1.33738 -0.28152,-2.12232 -1.78823,-2.12232 h -1.9177 z m 7.38857,-1.87854 h 0.66958 c 0.57855,0 0.76094,0.23177 0.76094,0.61242 0,0.60043 -0.54787,0.60643 -0.79128,0.60643 h -0.63924 z m 0,-1.75366 h 0.70768 c 0.38805,0 0.66216,0.23178 0.66216,0.54681 0,0.41628 -0.34996,0.54716 -0.60113,0.54716 h -0.76871 z m 0.88265,3.6322 c 0.48719,0 1.69686,-0.0476 1.69686,-1.13559 0,-0.58843 -0.21307,-0.99871 -1.02693,-1.08761 v -0.012 c 0.62371,-0.0953 0.93592,-0.45191 0.93592,-0.94509 0,-0.91581 -0.7232,-1.11196 -1.59809,-1.11196 h -2.0394 v 4.29225 z m 4.91561,0 0.31221,-0.95109 h 1.56739 l 0.30445,0.95109 h 1.20967 l -1.49119,-4.29225 h -1.51448 l -1.52188,4.29225 z m 1.63618,-1.61113 h -1.09573 l 0.52494,-1.85456 h 0.0152 z m 4.97628,1.61113 v -3.13866 h 0.0152 l 1.49896,3.13866 h 1.51447 v -4.29225 h -1.07315 v 2.97251 h -0.0152 l -1.46085,-2.97251 h -1.55222 v 4.29225 z m 6.76452,-3.6322 h 0.59372 c 0.79905,0 0.79905,0.69533 0.79905,1.48625 0,1.07598 -0.13724,1.48626 -0.83715,1.48626 h -0.55562 z m -1.149,3.6322 h 1.87184 c 1.96321,0 1.83409,-1.50989 1.83409,-2.16993 0,-1.33738 -0.28151,-2.12232 -1.78823,-2.12232 h -1.9177 z"
         style="fill:#223369;fill-opacity:1;fill-rule:nonzero;stroke:none;stroke-width:0.35277778"
         id="path5503"
         inkscape:connector-curvature="0" />
      <g
         style="fill:#223369;fill-opacity:1"
         id="g8847">
        <path
           inkscape:connector-curvature="0"
           id="path5539"
           style="fill:#223369;fill-opacity:1;fill-rule:nonzero;stroke:none;stroke-width:0.35277778"
           d="m 78.253275,176.85749 c 0,-1.47285 1.194153,-2.66665 2.666647,-2.66665 1.4732,0 2.667,1.1938 2.667,2.66665 0,1.47285 -1.1938,2.667 -2.667,2.667 -1.472494,0 -2.666647,-1.19415 -2.666647,-2.667" />
        <path
           inkscape:connector-curvature="0"
           id="path5543"
           style="fill:#223369;fill-opacity:1;fill-rule:nonzero;stroke:none;stroke-width:0.35277778"
           d="m 69.550001,174.54221 c 0.03563,-0.001 0.07126,-0.003 0.117828,-0.003 1.319741,-0.005 2.47015,-0.75389 3.034947,-1.85456 1.545872,-2.97109 4.674658,-5.04578 8.271228,-5.04578 3.467099,0 6.515452,1.96427 8.112124,4.7558 0.562328,1.11054 1.725789,1.8923 3.050823,1.8923 h 0.08608 c 0.61595,0 1.110897,0.49918 1.110897,1.11478 0,0.61595 -0.49918,1.10772 -1.114777,1.10772 -0.01623,3.5e-4 -0.06632,-0.001 -0.0822,-0.001 -2.183342,0 -4.073878,-1.24425 -5.004859,-3.05788 -1.228372,-2.12972 -3.543652,-3.59022 -6.158088,-3.59022 -2.725914,0 -5.115984,1.57233 -6.299553,3.84704 -0.932392,1.81187 -2.826456,3.05329 -5.006622,3.05329 -0.02822,0 -0.06526,-0.001 -0.09278,-0.003 -0.611716,0 -1.109839,-0.496 -1.109839,-1.10772 0,-0.60396 0.483659,-1.09502 1.084792,-1.10737" />
        <path
           inkscape:connector-curvature="0"
           id="path5547"
           style="fill:#223369;fill-opacity:1;fill-rule:nonzero;stroke:none;stroke-width:0.35277778"
           d="m 84.431084,175.48991 c -0.02469,-0.0406 -0.04692,-0.0854 -0.06668,-0.13088 -0.583847,-1.33033 -1.910997,-2.25601 -3.452636,-2.25601 -2.081036,0 -3.767667,1.68698 -3.767667,3.76801 0,2.08069 1.686631,3.76767 3.767667,3.76767 0.496358,0 1.005064,-0.1083 1.435453,-0.2801 3.388077,-1.08832 6.137275,-3.43712 9.876013,-3.24168 0.615598,0 1.110545,0.49918 1.110545,1.11478 0,0.6156 -0.499181,1.11442 -1.114778,1.11442 -0.0194,-3.5e-4 -0.0187,3.6e-4 -0.03845,-7e-4 0,0 -0.381705,-0.0198 -0.959908,0.0272 -2.993672,0.24307 -5.35058,2.16147 -8.120944,3.07552 -0.679098,0.26635 -1.419225,0.41169 -2.187928,0.41169 -3.307644,0 -5.988755,-2.68111 -5.988755,-5.98876 0,-3.30764 2.681111,-5.9891 5.988755,-5.9891 2.44228,0 4.542719,1.4605 5.474758,3.55247 0.0762,0.15064 0.117122,0.32067 0.117122,0.50094 0,0.61313 -0.497063,1.11019 -1.110191,1.11019 -0.410986,0 -0.770467,-0.22366 -0.962378,-0.55562" />
        <path
           inkscape:connector-curvature="0"
           id="path5551"
           style="fill:#223369;fill-opacity:1;fill-rule:nonzero;stroke:none;stroke-width:0.35277778"
           d="m 89.809393,182.5915 h -0.181681 v -0.84984 h 0.317148 c 0.219427,0 0.348544,0.0628 0.348544,0.25682 0,0.15663 -0.09172,0.21308 -0.204258,0.22155 l 0.216958,0.37147 h -0.214842 l -0.196497,-0.35701 h -0.08537 z m 0.160514,-0.50094 c 0.08149,0 0.129469,-0.0166 0.129469,-0.11078 0,-0.0878 -0.09384,-0.0938 -0.16263,-0.0938 h -0.127353 v 0.20462 z m -0.02893,0.86642 c -0.419805,0 -0.793397,-0.29034 -0.793397,-0.78917 0,-0.49882 0.373592,-0.78916 0.793397,-0.78916 0.417336,0 0.790928,0.29034 0.790928,0.78916 0,0.49883 -0.373592,0.78917 -0.790928,0.78917 m 0,-1.39453 c -0.313267,0 -0.565855,0.242 -0.565855,0.60536 0,0.36301 0.252588,0.60749 0.565855,0.60537 v 0.002 c 0.304447,0 0.563386,-0.24448 0.563386,-0.60749 0,-0.36336 -0.258939,-0.60536 -0.563386,-0.60536" />
      </g>
      <g
         style="fill:#cf202e;fill-opacity:1"
         id="g8841">
        <path
           inkscape:connector-curvature="0"
           id="path5507"
           style="fill:#cf202e;fill-opacity:1;fill-rule:nonzero;stroke:none;stroke-width:0.35277778"
           d="m 144.71375,169.13722 h 4.47534 v -1.50001 h -6.11928 v 9.3151 h 6.17925 v -1.49966 h -4.53531 v -2.52624 h 4.24039 v -1.50002 h -4.24039 z" />
        <path
           inkscape:connector-curvature="0"
           id="path5511"
           style="fill:#cf202e;fill-opacity:1;fill-rule:nonzero;stroke:none;stroke-width:0.35277778"
           d="m 139.10769,172.96468 3.49391,-5.31883 h -1.97026 l -2.31176,3.70346 -2.28564,-3.70346 h -2.07539 l 3.49391,5.31883 v 3.97898 h 1.65523 z" />
        <path
           inkscape:connector-curvature="0"
           id="path5515"
           style="fill:#cf202e;fill-opacity:1;fill-rule:nonzero;stroke:none;stroke-width:0.35277778"
           d="m 127.15653,176.94383 -4.61716,-5.00345 4.32929,-4.29436 h -2.22355 l -3.83223,3.93982 h -0.0783 v -3.93982 h -1.64817 v 9.29781 h 1.64817 v -4.57024 h 0.0914 l 4.01567,4.57024 z" />
        <path
           inkscape:connector-curvature="0"
           id="path5527"
           style="fill:#cf202e;fill-opacity:1;fill-rule:nonzero;stroke:none;stroke-width:0.35277778"
           d="m 112.32826,172.23215 c 0,-1.77059 1.21814,-3.17676 3.05153,-3.17676 0.61524,0 1.21779,0.18803 1.87078,0.87877 l 1.23049,-0.90417 c -0.87877,-1.01706 -1.90853,-1.40618 -3.11397,-1.40618 -2.73756,0 -4.69618,1.85844 -4.69618,4.70888 0,2.77495 1.95862,4.63338 4.69618,4.63338 1.30598,0 2.51142,-0.47695 3.31505,-1.5822 l -1.30598,-0.92922 c -0.5902,0.75353 -1.28094,1.07985 -1.99637,1.07985 -1.83339,0 -3.05153,-1.40617 -3.05153,-3.30235" />
        <path
           inkscape:connector-curvature="0"
           id="path5531"
           style="fill:#cf202e;fill-opacity:1;fill-rule:nonzero;stroke:none;stroke-width:0.35277778"
           d="m 110.18252,173.38517 v -5.74604 h -1.61607 v 5.69489 c 0,0.89782 -0.48754,2.07786 -2.03941,2.07786 -1.55187,0 -2.03941,-1.18004 -2.03941,-2.07786 v -5.69489 h -1.61608 v 5.74604 c 0,2.19322 1.57763,3.56588 3.65549,3.56588 2.07786,0 3.65548,-1.37266 3.65548,-3.56588" />
        <path
           inkscape:connector-curvature="0"
           id="path5535"
           style="fill:#cf202e;fill-opacity:1;fill-rule:nonzero;stroke:none;stroke-width:0.35277778"
           d="m 102.01134,169.97388 c 0,-1.70109 -1.45062,-2.34738 -2.861733,-2.34738 h -3.639961 v 9.33697 h 3.36303 c 1.767064,0 3.534124,-0.63324 3.534124,-2.66383 0,-1.20015 -0.84384,-2.12337 -2.01753,-2.25531 v -0.0265 c 0.96273,-0.28998 1.62207,-0.98883 1.62207,-2.04399 m -4.839758,2.87479 h 1.595614 c 1.345144,0 1.978024,0.3429 1.978024,1.31903 0,1.22626 -1.186744,1.37125 -2.043994,1.37125 h -1.529644 z m 3.178178,-2.59786 c 0,0.69885 -0.553864,1.17369 -1.661587,1.17369 h -1.516591 v -2.37384 h 1.371247 c 1.253067,0 1.806931,0.39582 1.806931,1.20015" />
        <path
           inkscape:connector-curvature="0"
           id="path5555"
           style="fill:#cf202e;fill-opacity:1;fill-rule:nonzero;stroke:none;stroke-width:0.35277778"
           d="m 129.11191,169.14312 h 4.47534 v -1.49719 h -6.11928 v 9.29781 h 6.17925 v -1.49719 h -4.53531 v -2.5213 h 4.24039 v -1.49719 h -4.24039 z" />
      </g>
    </g>
  </g>
</svg>
